<?xml version="1.0" encoding="UTF-8" standalone="no"?>
<!-- Created with Inkscape (http://www.inkscape.org/) -->

<svg
   xmlns:dc="http://purl.org/dc/elements/1.1/"
   xmlns:cc="http://creativecommons.org/ns#"
   xmlns:rdf="http://www.w3.org/1999/02/22-rdf-syntax-ns#"
   xmlns:svg="http://www.w3.org/2000/svg"
   xmlns="http://www.w3.org/2000/svg"
   xmlns:sodipodi="http://sodipodi.sourceforge.net/DTD/sodipodi-0.dtd"
   xmlns:inkscape="http://www.inkscape.org/namespaces/inkscape"
   width="236.23958mm"
   height="192.15399mm"
   viewBox="0 0 837.06941 680.8606"
   id="svg2"
   version="1.1"
   inkscape:version="0.91 r13725"
   sodipodi:docname="takebait.svg"
   inkscape:export-filename="C:\Users\Z\Pictures\cooking.png"
   inkscape:export-xdpi="90"
   inkscape:export-ydpi="90">
  <defs
     id="defs4">
    <clipPath
       clipPathUnits="userSpaceOnUse"
       id="clipPath15297">
      <path
         style="fill:none;fill-rule:evenodd;stroke:#000000;stroke-width:1px;stroke-linecap:butt;stroke-linejoin:miter;stroke-opacity:1"
         d="m 572.20152,-430.62932 c 34.84568,-42.32767 121.72477,-80.27159 119.18909,-75.64769 27.52019,-22.85427 55.2821,-45.58768 73.66854,-73.00883 -3.50907,-26.54198 16.02738,-20.82024 27.62633,-26.21099 26.11978,-35.36707 45.26539,-48.75315 69.79211,-93.96399 8.61526,-0.28574 17.16544,-18.38502 27.4322,-40.14012 l 1.93067,-22.10245 c 2.7519,-14.7346 25.31358,-29.4692 52.72725,-44.20381 -9.49998,-19.80816 -29.9659,-14.69372 -23.15534,-71.57128 -16.09879,-19.05722 -13.39713,-30.1462 -26.37042,-83.91036 2.29031,-14.41749 0.83618,-15.15124 4.74417,-29.56874 0,0 -13.57342,-83.57082 27.84613,-86.79172 60.24843,-43.4398 104.16295,-49.5449 153.87175,-68.8942 57.4073,-7.0784 72.5141,24.6187 91.4809,52.7774 l -8.9213,22.8077 10.9824,27.1617 -5.1893,4.77 15.3362,54.52917 c 9.5469,11.87893 21.7109,30.91618 29.6054,62.62256 l 19.8075,-3.4263 24.1614,7.1475 16.0756,0.92762 c 56.9044,27.73724 137.1643,45.25647 169.7067,83.65207 20.4618,28.79728 33.9729,72.88596 46.2374,119.71732 4.0552,22.67075 0.4943,47.24554 16.4552,66.93985 10.5555,15.58368 21.111,24.31142 31.6665,63.33296 l 3.3934,153.8275 -609.41031,-1.48326 17.18393,-60.56148 c -28.89481,15.55336 -41.72149,36.98313 -60.54315,53.31105 -9.1987,-1.75941 -18.3974,-8.59863 -27.59609,-18.64134 l -12.7233,-4.47894 -40.09078,30.3524 z"
         id="path15299"
         inkscape:connector-curvature="0"
         sodipodi:nodetypes="cccccccccccccccccccccccccccccccccc" />
    </clipPath>
  </defs>
  <sodipodi:namedview
     id="base"
     pagecolor="#ffffff"
     bordercolor="#666666"
     borderopacity="1.0"
     inkscape:pageopacity="0.0"
     inkscape:pageshadow="2"
     inkscape:zoom="0.61522729"
     inkscape:cx="343.78723"
     inkscape:cy="301.05267"
     inkscape:document-units="px"
     inkscape:current-layer="layer1"
     showgrid="false"
     fit-margin-top="0"
     fit-margin-left="0"
     fit-margin-right="0.4"
     fit-margin-bottom="0"
     inkscape:window-width="1366"
     inkscape:window-height="745"
     inkscape:window-x="-8"
     inkscape:window-y="-8"
     inkscape:window-maximized="1" />
  <metadata
     id="metadata7">
    <rdf:RDF>
      <cc:Work
         rdf:about="">
        <dc:format>image/svg+xml</dc:format>
        <dc:type
           rdf:resource="http://purl.org/dc/dcmitype/StillImage" />
        <dc:title></dc:title>
      </cc:Work>
    </rdf:RDF>
  </metadata>
  <g
     inkscape:label="Layer 1"
     inkscape:groupmode="layer"
     id="layer1"
     transform="translate(14.80117,1293.3607)">
    <path
       style="fill:#e3dedb"
       d="m 210.66016,-92.726562 c -1.90778,0 -3.66728,4.069774 -13.55078,31.359374 -1.06768,2.948001 -5.0973,11.895613 -8.95508,19.882813 -24.14095,49.9816 -55.96948,75.274953 -94.695316,75.251953 -9.21497,-0.01 -30.148597,-3.81995 -35.154296,-6.40625 -1.467641,-0.7582 -4.543588,-1.8833 -6.835938,-2.5 C 47.48447,23.789428 23.108855,11.782472 10.796875,4.8261719 5.536075,1.8538719 4.8023725,1.6781062 3.4140625,3.0664062 2.0257525,4.4547063 2.2868213,5.3773687 6.0507812,12.355469 8.3489813,16.616169 13.197952,24.6402 16.826172,30.1875 c 21.18064,32.3837 41.306809,52.82355 61.505859,62.46875 2.58218,1.233 6.417018,3.965866 8.523438,6.072266 2.67517,2.675204 5.792425,4.419614 9.859375,5.478514 2.7387,5.6776 7.585216,15.50965 13.351566,25.93555 -5.35499,1.1893 -11.753541,2.57895 -20.929691,4.56445 -5.225,1.1306 -13.1,2.52892 -17.5,3.10742 -4.4,0.5784 -10.25,1.66893 -13,2.42383 -2.75,0.755 -9.95,1.89094 -16,2.52344 -6.05,0.6324 -14.375,1.77682 -18.5,2.54492 -4.125,0.768 -14.2500002,1.87814 -22.5000002,2.46484 -8.25,0.5867 -21.9749998,1.92055 -30.4999998,2.96485 -8.525,1.0443 -21.575,2.17833 -29,2.51953 -15.79151,0.7257 -18,1.08428 -18,2.92578 0,2.0576 3.98524,2.42016 34,3.10156 26.10937,0.5928 46.1736498,-0.14876 67,-2.47656 4.675,-0.5226 13.305077,-1.40358 19.179687,-1.95898 10.79456,-1.0206 26.834523,-3.64343 43.320313,-7.08204 18.201941,-3.7967 26.529451,-5.19333 27.873051,-4.67773 0.75712,0.2905 4.6082,6.96072 8.55664,14.82422 10.76119,21.4314 24.71634,37.44879 52.07031,59.76367 20.81231,16.97838 23.38494,19.47398 27.05078,26.24219 3.06141,5.65226 3.43957,7.18532 3.42188,13.85547 -0.022,8.29646 -1.85772,12.95333 -8.13672,20.6289 -7.19628,8.79689 -20.55073,15.12731 -33.88086,16.0625 -7.57172,0.5312 -8.39488,0.38409 -14,-2.50586 -14.04596,-7.24196 -15.71683,-7.64896 -31.45508,-7.66796 -15.59555,-0.0188 -17.69358,0.50673 -32.13672,8.05859 -5.80306,3.0342 -9.037071,3.01435 -15.363281,-0.0977 -2.75,-1.35277 -5.771021,-2.46375 -6.712891,-2.46875 -0.94187,-0.005 -4.09187,-0.89396 -7,-1.97461 -2.90813,-1.08065 -11.362109,-3.20455 -18.787109,-4.7207 -12.41999,-2.53609 -15.30002,-2.75421 -36.0000002,-2.72461 -16.2754698,0.0233 -24.9898098,0.48 -31.4999998,1.6543 -6.42606,1.15912 -10.28697,1.37027 -13.5,0.73437 -7.30861,-1.44645 -18.096481,-1.10763 -30.337891,0.95313 -19.42526,3.2701 -30.169158,9.30504 -35.117188,19.73047 -3.89475,8.20617 -4.35323,15.31727 -1.58008,24.44726 4.61904,15.20718 6.14957,17.23423 35.423831,46.89063 38.42875,38.93041 52.296518,56.93226 56.111328,72.84179 2.06929,8.62991 1.652479,15.06393 -1.519531,23.50391 -2.440761,6.49431 -10.387119,15.64747 -22.480469,25.89258 -9.79134,8.29492 -21.035703,21.07417 -23.882813,27.14258 -1.3212,2.81604 -3.350465,7.1744 -4.509765,9.68554 -6.25924,13.55817 1.945115,29.45235 19.541015,37.85743 9.52628,4.55045 29.142303,8.73977 44.3515628,9.47265 15.9380902,0.76799 36.2191072,-0.76569 44.6796872,-3.3789 8.11396,-2.50615 10.966933,-2.50801 30.820313,-0.0176 10.65935,1.33713 21.924984,2 33.990231,2 15.76706,0 19.43266,-0.32062 29.02735,-2.53711 6.03997,-1.39531 15.70742,-2.93311 21.48242,-3.41797 25.36707,-2.12977 35.95518,-3.29132 42.5,-4.66016 3.85,-0.80522 9.475,-1.93284 12.5,-2.50586 7.27513,-1.37812 23.88245,-6.30876 32,-9.50195 12.65676,-4.97877 31.4475,-16.19322 44.35547,-26.4707 7.71997,-6.14673 8.16894,-5.95988 23.64453,9.91406 15.03296,15.41991 23.86644,22.84474 35,29.41797 16.36133,9.65971 30.72718,14.39594 51,16.8125 8.13761,0.97002 17.79089,1.51314 22,1.23828 35.43187,-2.31379 53.30676,-6.59948 49.02734,-11.75586 -0.6697,-0.80695 -4.2129,-3.13232 -7.87304,-5.16602 -16.95849,-9.42265 -28.92499,-19.51118 -36.04297,-30.38671 -1.98657,-3.03527 -6.08633,-10.23025 -9.11133,-15.99024 -8.3572,-15.91317 -20.16673,-27.39769 -39,-37.92773 -4.125,-2.30636 -8.33384,-5.00907 -9.35156,-6.00586 -2.21796,-2.17238 -1.86566,-2.99841 5.41796,-12.74219 2.7451,-3.67227 7.23702,-10.60288 9.98243,-15.40039 20.44306,-35.72363 28.27786,-71.24835 25.01172,-113.41406 -3.45949,-44.66193 -23.6135,-88.85759 -56.02344,-122.85742 -8.00013,-8.39258 -25.09024,-22.63831 -34.53711,-28.78711 -16.27824,-10.5952 -24.78335,-14.9638 -45.5,-23.375 -5.775,-2.3448 -14.325,-5.82613 -19,-7.73633 -4.675,-1.9102 -9.625,-3.81728 -11,-4.23828 -5.0223,-1.5377 -23.67909,-10.94448 -30.22266,-15.23828 -6.75951,-4.4356 -15.36768,-13.03192 -16.78515,-16.76172 -1.05719,-2.7818 -0.216,-3.54161 9.45507,-8.53711 4.67554,-2.4151 8.72209,-4.97069 8.99414,-5.67969 0.77427,-2.0176 -8.35652,-1.61707 -14.60351,0.64062 -1.58694,0.5736 -4.65695,1.55871 -8.53125,2.75391 -2.4177,-9.2268 -6.01863,-24.536461 -6.46875,-35.789061 4.79011,-1.5112 18.51868,-20.937288 26.10156,-37.179688 10.37805,-22.2298 14.06333,-38.7338435 14.78516,-66.214843 0.44875,-17.0844 0.22793,-20.814801 -2.19531,-37 -2.87698,-19.2158 -5.22615,-26 -9.00586,-26 z m -323.79102,75.5625 c -3.37275,0.086 -6.41513,2.772881 -8.57812,7.8007808 -1.12816,2.6224999 -2.98165,10.13942495 -4.11719,16.703125 -1.13554,6.5638002 -2.45686,13.2835932 -2.9375,14.9335942 -0.48064,1.65 -1.39901,5.551874 -2.04102,8.671874 -1.31892,6.4095 -1.65806,6.780913 -8.52148,9.320313 -6.40918,2.3713 -17.84915,13.718813 -22.1875,22.007813 -1.72718,3.299999 -4.34965,10.5 -5.82617,16 -1.47652,5.5 -2.99392,11.125 -3.37305,12.5 -0.61249,2.221399 -1.29742,2.535046 -6.14258,2.810546 -2.99903,0.1704 -9.51516,-0.3926 -14.48047,-1.25 -17.71613,-3.059 -18.65053,-4.0389 -9.53125,-10 3.58796,-2.3454 5.66107,-4.303796 5.12305,-4.841796 -1.02048,-1.020501 -15.16201,1.803759 -19.11914,3.818359 -1.375,0.6999 -3.55629,2.402703 -4.8457,3.783203 -4.23867,4.538 -0.82851,8.751156 9.13281,11.285156 2.86633,0.7291 7.46289,1.954203 10.21289,2.720703 2.75,0.7664 11.075,1.724211 18.5,2.128911 7.425,0.4047 15.525,1.10714 18,1.56054 7.10039,1.3009 50.02902,0.38876 65.999999,-1.40234 7.975,-0.8943 16.75,-2.373357 19.5,-3.285158 2.75,-0.9118 7.925,-2.218849 11.5,-2.90625 15.50043,-2.980099 24.943638,-8.523768 23.605469,-13.855468 -0.817401,-3.2568 -6.025979,-6.5525 -10.355469,-6.5625 -3.64226,0 -3.921205,0.798025 -1.740235,5.015625 1.42797,2.7614 1.386955,3.001709 -0.765625,4.412109 -6.3226,4.1428 -28.780801,7.96545 -31.394531,5.34375 -0.70479,-0.707 -1.69293,-5.778906 -2.21875,-11.378906 -1.37549,-14.6487 -4.588832,-21.68345 -14.945308,-32.71875 l -5.46485,-5.820313 0.56055,-7.179687 c 0.30731,-3.9482 1.46005,-11.677734 2.5625,-17.177734 4.04227,-20.1663005 3.71579,-27.592569 -1.35938,-30.917969 -1.6176,-1.0599 -3.21888,-1.558631 -4.75195,-1.519531 z M -260.05859,84.863281 c -2.07052,-0.069 -4.62204,0.552556 -7.47461,1.847657 -6.70596,3.044799 -7.62874,6.898628 -2.67383,11.173828 2.67979,2.312204 17.57113,6.620694 26.88672,7.779294 4.42352,0.5502 9.31974,1.48648 10.88086,2.08008 1.56113,0.5935 8.96667,1.75287 16.45703,2.57617 7.49036,0.8234 17.15525,2.16181 21.47851,2.97461 4.32326,0.8129 11.44101,1.47852 15.81641,1.47852 4.3754,0 8.80358,0.45331 9.83984,1.00781 1.03627,0.5546 3.50932,4.10191 5.4961,7.88281 1.98678,3.7808 5.60998,9.21472 8.05078,12.07422 5.17917,6.0675 5.42508,8.01159 2.39844,18.9336 -1.12142,4.0468 -2.08884,10.21709 -2.14844,13.71289 -0.0911,5.3493 0.31104,6.96068 2.53906,10.17578 1.45599,2.101 2.64844,4.37322 2.64844,5.04883 0,0.6756 0.65229,2.78801 1.44922,4.69531 l 0,0.01 c 0.79694,1.9073 1.72069,3.4668 2.05468,3.4668 0.33402,0 1.48767,-1.98827 2.5625,-4.41797 1.07485,-2.4298 3.48388,-6.24843 5.35352,-8.48633 2.12167,-2.5395 3.66009,-5.67113 4.0918,-8.33203 0.38042,-2.3448 1.50622,-7.41367 2.5039,-11.26367 0.99769,-3.85 2.08365,-8.60917 2.41211,-10.57617 1.20692,-7.2273 0.0384,-6.9465 30.582034,-7.3418 46.9983,-0.6082 59.935105,-1.51839 106.4902348,-7.49609 34.2316702,-4.3954 61.8545582,-11.63304 69.9863282,-18.33594 4.754,-3.9187 4.896649,-8.59955 0.386719,-12.71875 C 73.009276,98.2453 55.768577,92.810109 46.210938,92.787109 l -2.423829,-0.0098 2.423829,2.607422 c 1.33337,1.4343 4.675781,3.621828 7.425781,4.861319 6.08662,2.7434 10.75596,6.95723 10.30664,9.29883 -0.45925,2.3934 -9.17418,6.94266 -15.80664,8.25196 -3.025,0.59709 -8.875,1.9648 -13,3.0371 -4.125,1.0724 -12.358515,2.38889 -18.296875,2.92579 -5.93836,0.537 -14.2633602,1.64127 -18.5000002,2.45507 -4.2366401,0.81391 -16.4781248,1.98793 -27.2031248,2.60743 -10.725,0.6196 -21.525,1.54464 -24,2.05664 -7.17221,1.4836 -53.999999,2.42193 -53.999999,1.08203 0,-0.6134 3.12927,-4.6615 6.955077,-8.9961 l 6.957031,-7.88085 9.878906,-0.64844 c 5.43413,-0.3561 13.802944,-1.33022 18.595704,-2.16602 4.79277,-0.8358 14.12995,-1.96301 20.75,-2.50391 6.620049,-0.54089 14.359468,-1.62816 17.199218,-2.41796 2.83974,-0.7899 8.089063,-1.73596 11.664063,-2.10157 7.0834798,-0.7244 13.6848547,-3.15603 15.9218748,-5.865226 3.49356,-4.2312 -3.2158651,-10.601562 -11.1718748,-10.601562 -4.2335,0 -4.473383,0.577047 -2.007813,4.873047 2.2881202,3.9868 1.256908,4.92254 -6.820312,6.18164 -3.53219,0.550601 -8.178599,1.687501 -10.324219,2.525401 -2.14562,0.83789 -8.89562,1.95773 -15,2.49023 -6.10438,0.5325 -14.922656,1.69016 -19.597656,2.57227 -6.843,1.29119 -15.90776,1.6089 -46.499999,1.6289 -47.30758,0.031 -65.62895,-0.61546 -76.5,-2.69726 -4.675,-0.8952 -13.68439,-2.05227 -20.01953,-2.57227 -6.33513,-0.52 -12.86013,-1.40977 -14.5,-1.97657 -1.63986,-0.56669 -7.70547,-1.6521 -13.48047,-2.412107 -11.6512,-1.5333 -25,-5.217137 -25,-6.898437 0,-0.5984 0.99957,-2.153179 2.22266,-3.455079 1.88562,-2.0072 1.99967,-2.508528 0.75,-3.298828 -0.85703,-0.5419 -1.92567,-0.831646 -3.16797,-0.873046 l 0,-0.0039 z m -54.34571,6.910157 c -3.97068,0 -10.25822,3.710031 -12.00195,7.082031 -2.22181,4.296501 -1.07954,8.258101 3.4082,11.812501 4.61547,3.6555 18.03602,10.10547 21.02539,10.10547 1.22062,0 4.10675,0.84987 6.41407,1.88867 2.30733,1.0389 6.22031,2.20304 8.69531,2.58594 2.475,0.3829 7.2,1.49912 10.5,2.48242 3.3,0.9833 9.15,2.10368 13,2.48828 3.85,0.3847 9.25,1.35144 12,2.14844 2.75,0.7969 11.3,2.11092 19,2.91992 10.78979,1.1337 14.28501,1.8574 15.24219,3.1582 1.00439,1.365 0.96079,2.00026 -0.22852,3.31446 -1.09936,1.2148 -1.41161,3.80683 -1.23633,10.26953 0.22724,8.3783 0.34224,8.75718 3.72852,12.30468 1.92181,2.0133 5.4608,4.51821 7.86523,5.56641 4.16857,1.8171 4.33847,2.05753 3.67188,5.14063 -2.43841,11.2782 -1.5769,15.09702 4.29687,19.04882 2.01237,1.3539 4.33516,2.70144 5.16016,2.99414 8.07025,2.8634 19.35514,-4.07624 20.01953,-12.31054 0.62804,-7.7838 0.0878,-9.28044 -5.07617,-14.05274 l -5.05664,-4.67382 2.14453,-6.36719 c 2.04747,-6.0779 2.07348,-6.61912 0.56445,-11.88672 -0.86958,-3.0355 -1.6983,-6.86582 -1.83984,-8.51172 -0.34841,-4.0515 -3.10954,-5.20806 -16.74024,-7.00586 -6.13641,-0.8093 -11.50999,-1.68772 -11.93945,-1.95312 -0.42947,-0.2654 -5.68365,-0.95229 -11.67773,-1.52539 -5.99408,-0.57321 -13.37344,-1.7093 -16.39844,-2.5254 -3.025,-0.816 -9.51196,-1.97868 -14.41406,-2.58398 -4.90209,-0.6053 -11.59686,-1.95931 -14.87891,-3.00781 -3.28205,-1.0484 -7.37204,-1.92522 -9.08789,-1.94922 -1.71585,-0.024 -4.91914,-0.73709 -7.11914,-1.58399 -2.2,-0.8469 -6.7,-2.32525 -10,-3.28515 -8.20884,-2.3876 -16.13135,-6.59344 -18.11133,-9.61524 -1.52375,-2.3256 -1.52467,-2.82919 -0.0176,-6.775387 2.11204,-5.5303 2.08499,-5.697265 -0.91211,-5.697265 z m -39.62109,9.000002 c -5.7329,0 -14.83789,8.56779 -14.83789,13.96289 0,10.661 21.44157,20.07338 55,24.14258 4.125,0.5002 13.125,1.63935 20,2.53125 6.875,0.8919 17.225,1.90068 23,2.24218 16.98626,1.0044 43.36424,0.53194 45.89453,-0.82226 1.63403,-0.8745 1.95554,-1.53161 1.19727,-2.44531 -0.73155,-0.8814 -5.43864,-1.30334 -15.97461,-1.43165 -8.7038,-0.10599 -20.5042,-1.00539 -28.27735,-2.15429 -7.33707,-1.0846 -18.73984,-2.4324 -25.33984,-2.9961 -16.43954,-1.4041 -37.61378,-5.62817 -50.21484,-10.01757 -4.15457,-1.4471 -7.21987,-3.31085 -9.25,-5.62305 -3.58657,-4.0849 -3.65192,-4.78407 -1.03516,-10.88867 2.51588,-5.8693 2.50017,-6.5 -0.16211,-6.5 z m 272.884765,60.20312 c -1.5688,0 -3.102107,0.35576 -4.498047,1.13086 -4.24782,2.3585 -10.224609,10.6156 -10.224609,14.125 0,4.2818 5.063334,11.29612 8.740234,12.10742 1.51756,0.3349 3.198575,0.71511 3.734375,0.84571 1.60287,0.3904 7.869157,-0.97831 10.185547,-2.22461 3.31451,-1.7832 6.339844,-7.44283 6.339844,-11.86133 0,-7.5445 -7.479174,-14.13415 -14.277344,-14.12305 z m -148.876955,0.18164 c -1.28146,-0.06 -2.21375,0.28143 -3.42969,1.07813 -3.20828,2.1022 -3.04963,3.35697 0.83399,6.63867 2.72676,2.3042 3.06836,3.03987 2.12305,4.57227 -1.14508,1.8564 -3.98558,2.14105 -8.12305,0.81445 -1.98121,-0.6352 -2.25,-0.37653 -2.25,2.17187 0,3.9199 2.42846,7.10818 6.29492,8.26368 9.97585,2.9813 19.28662,-5.33683 16.70508,-14.92383 -1.1837,-4.396 -3.67959,-6.55754 -9.33399,-8.08594 -1.15674,-0.3127 -2.05143,-0.4932 -2.82031,-0.5293 z m 83.43946,32.66016 c -0.22824,0 -0.48583,0.49146 -0.9961,1.47656 -0.56341,1.0877 -1.2654,6.57812 -1.56055,12.19922 -0.43125,8.21332 -0.93558,10.7261 -2.56445,12.79688 -1.11479,1.41723 -2.33392,4.01762 -2.71094,5.77929 -0.83304,3.89251 -6.48901,15.6859 -10.22461,21.32031 -6.58163,9.92709 -8.08703,11.98807 -10.00976,13.70704 -2.03879,1.82272 -2.04085,1.8185 -1.55274,-6 0.65084,-10.42523 -1.70639,-15.33924 -9.66601,-20.14258 -4.96065,-2.99361 -6.11097,-3.28459 -11.73242,-2.95508 -5.26655,0.30871 -6.71392,0.82444 -9.33594,3.32031 -1.70665,1.62454 -4.07719,4.97458 -5.26758,7.44531 -2.63431,5.46775 -7.61249,9.00782 -12.66797,9.00782 -2.69466,0 -4.95574,0.95216 -8.26953,3.48242 -5.37901,4.10719 -7.17606,8.49789 -6.47266,15.81836 0.41568,4.32614 1.07375,5.616 4.49219,8.80469 8.06788,7.52563 19.18392,6.00717 26.45508,-3.61329 l 3.75,-4.96093 7.01758,0.32422 c 6.04741,0.27938 7.65781,-0.0341 11.65039,-2.26563 2.54815,-1.42419 5.02514,-2.58984 5.50586,-2.58984 1.77184,0 0.76691,3.39447 -3.50586,11.84179 -8.25765,16.32547 -12.09585,26.05387 -15.05469,38.15821 -0.73944,3.025 -2.10496,8.35297 -3.03515,11.83984 -1.41883,5.31856 -1.62684,9.98991 -1.29297,29 0.43609,24.82993 0.29677,24.15093 8.14062,39.94922 4.98958,10.04951 15.44755,19.7762 29.43555,27.38086 1.82914,0.99443 4.08746,3.67555 5.58008,6.62109 3.22197,6.35826 7.21747,9.66255 14.0957,11.66211 l 5.51172,1.60352 0,11.59961 c 0,11.04267 0.14285,11.85141 2.98242,16.81445 4.32599,7.56104 19.28873,17.43404 26.7168,17.62891 2.08981,0.0548 4.92578,0.48289 6.30078,0.95117 3.87986,1.32136 10.145123,0.29252 16.083983,-2.64258 7.07307,-3.49566 8.662379,-4.96473 9.480469,-8.76172 0.37284,-1.73047 1.763637,-5.01277 3.091797,-7.29492 1.32816,-2.28215 2.891586,-6.78215 3.472656,-10 0.58108,-3.21785 1.395687,-7.77974 1.810547,-10.13672 0.79051,-4.49112 4.853064,-9.75127 8.683594,-11.24219 2.84768,-1.10837 12.073125,1.6328 15.703125,4.66602 4.0363,3.37272 9.832662,3.24665 12.601562,-0.27344 1.13992,-1.44917 2.07036,-3.81167 2.068359,-5.25 -0.005,-3.6752 -3.48151,-8.95432 -6.74414,-10.24219 -2.9255,-1.1548 -4.116981,-1.81717 -8.525391,-4.74023 -3.90418,-2.58872 -19.054956,-3.64535 -22.941406,-1.59961 -1.53224,0.80654 -4.247656,2.20564 -6.035156,3.10938 -5.07397,2.56533 -7.713026,5.38796 -10.878907,11.63476 -2.95828,5.83715 -5.477153,19.23811 -4.308593,22.91992 0.86033,2.71068 -6.99521,11.29546 -11.781249,12.875 -3.43193,1.13264 -4.27148,1.07032 -6.96289,-0.51953 -2.34281,-1.38393 -4.31029,-1.678 -8.40039,-1.25586 -4.32454,0.44633 -5.8117,0.18334 -7.80274,-1.38281 -4.01646,-3.15935 -6.11523,-10.18438 -6.11523,-20.45703 0,-8.28417 0.27251,-9.55232 3.25,-15.13867 3.77742,-7.08717 4.05018,-11.03116 1.17773,-16.96485 -4.01619,-8.29632 -16.67037,-12.44047 -19.84961,-6.5 -0.81495,1.52275 -0.23195,2.35888 3.47071,4.96875 3.2963,2.32345 4.45117,3.80265 4.45117,5.70313 0,3.00348 -4.07296,7.47461 -6.8086,7.47461 -2.96952,0 -7.18953,-4.51078 -7.20703,-7.70313 -0.022,-4.02421 -1.31136,-5.50409 -4.59961,-5.28125 -5.60459,0.37982 -7.04577,-0.0543 -12.93554,-3.89844 -11.62078,-7.58461 -19.1186,-17.13575 -24.03321,-30.61718 -2.83878,-7.78721 -2.91601,-8.50538 -2.91601,-27 0,-16.94707 0.23692,-19.70232 2.20117,-25.5 1.2112,-3.575 2.63914,-8.75 3.17188,-11.5 2.4597,-12.69709 14.69606,-39.22288 26.29492,-57 10.42852,-15.98337 16.40718,-28.61917 17.41992,-36.81446 0.35247,-2.85218 1.19729,-6.08554 1.87695,-7.18554 1.49023,-2.41186 2.76125,-20.19432 1.64258,-22.97852 -0.39582,-0.9851 -0.59404,-1.47656 -0.82226,-1.47656 z m 26.30664,22.60742 c -2.8251,0.0481 -5.45577,0.68368 -7.35743,1.92969 -6.14117,4.02385 -11.99172,11.023 -12.69531,15.1875 -1.33741,7.91605 5.73305,17.97077 14.57617,20.72851 5.86395,1.82869 8.05959,1.80399 13.11328,-0.14843 8.84083,-3.41553 12.771489,-9.12894 12.771489,-18.56836 0,-7.75158 -2.714669,-12.35749 -9.693359,-16.44727 -3.12925,-1.83386 -7.08258,-2.74353 -10.71484,-2.68164 z m 63.792964,20.41992 c -1.83589,-0.0558 -3.607919,0.39578 -5.162109,1.48438 -2.82232,1.97684 -2.814596,3.1281 0.02734,3.99414 3.71956,1.13351 5.75,3.57168 5.75,6.9043 0,3.87946 -1.555775,5.54492 -5.177735,5.54492 -2.95652,0 -5.502415,-2.81899 -6.103515,-6.75782 -0.53039,-3.47542 -1.351446,-3.56703 -3.603516,-0.40429 -2.10873,2.96144 -2.568107,4.75724 -2.273437,8.87695 0.18511,2.58812 5.628085,9.12114 8.603515,10.32617 3.32275,1.3457 11.428203,1.07476 14.439453,-0.48242 3.39716,-1.75674 7.553645,-7.06937 8.484375,-10.8457 2.12919,-8.63901 -7.028815,-18.39887 -14.984375,-18.64063 z m -64.730464,35.10157 c -1.8831,0.0587 -3.5463,0.83136 -6.66407,2.83203 -5.94403,3.81427 -7.99023,7.2244 -7.99023,13.31054 0,4.95857 2.35814,8.71228 7.41016,11.79297 8.72219,5.31875 21.53708,-0.8529 23.21289,-11.17969 1.20569,-7.4298 -5.32212,-15.19539 -13.95118,-16.5957 -0.73861,-0.11986 -1.38987,-0.17973 -2.01757,-0.16015 z m -27.11133,24.85546 c -2.97784,0.0331 -5.71526,1.15598 -8.91602,3.43165 -7.83333,5.56928 -11.62695,10.62244 -11.62695,15.48828 0,6.9488 4.44502,13.66938 11.5,17.38867 3.78968,1.99786 13.69964,2.12716 17.375,0.22656 4.34074,-2.24469 9.93967,-9.06708 10.67969,-13.01172 1.73467,-9.24659 -2.85005,-18.03552 -11.29688,-21.65625 -2.93882,-1.25973 -5.39874,-1.89289 -7.71484,-1.86719 z"
       transform="translate(354.06264,-1200.6341)"
       id="path26103"
       inkscape:connector-curvature="0" />
    <path
       style="fill:#000000"
       d="m 749.19883,-613.81 c -20.27282,-2.41656 -34.63867,-7.15218 -51,-16.81189 -11.13356,-6.57323 -19.96704,-13.99784 -35,-29.41775 -15.47559,-15.87394 -15.92409,-16.06202 -23.64406,-9.91529 -12.90797,10.27748 -31.69918,21.4915 -44.35594,26.47027 -8.11755,3.19319 -24.72487,8.12522 -32,9.50334 -3.025,0.57302 -8.65,1.70068 -12.5,2.5059 -6.54482,1.36884 -17.13293,2.52965 -42.5,4.65942 -5.775,0.48486 -15.44179,2.02317 -21.48176,3.41848 -9.59469,2.21649 -13.26114,2.53692 -29.0282,2.53692 -12.06525,0 -23.33069,-0.66287 -33.99004,-2 -19.85338,-2.49045 -22.70661,-2.48885 -30.82057,0.0173 -8.46058,2.61321 -28.74134,4.147 -44.67943,3.37901 -15.20926,-0.73288 -34.82523,-4.92269 -44.35151,-9.47314 -17.5959,-8.40508 -25.79993,-24.29927 -19.54069,-37.85744 1.1593,-2.51114 3.18879,-6.86976 4.50999,-9.6858 2.84711,-6.06841 14.09087,-18.84671 23.88221,-27.14163 12.09335,-10.24511 20.04112,-19.39882 22.48188,-25.89313 3.17201,-8.43998 3.58757,-14.87284 1.51828,-23.50275 -3.81481,-15.90953 -17.68222,-33.912 -56.11097,-72.84241 -29.27426,-29.6564 -30.80549,-31.68325 -35.42453,-46.89043 -2.77315,-9.12999 -2.31312,-16.24055 1.58163,-24.44672 4.94803,-10.42543 15.6906,-16.46177 35.11586,-19.73187 12.24141,-2.06076 23.02924,-2.39973 30.33785,-0.95328 3.21303,0.6359 7.07394,0.42632 13.5,-0.7328 6.51019,-1.1743 15.22453,-1.63231 31.5,-1.65559 20.69998,-0.0296 23.58001,0.18834 36,2.72443 7.425,1.51615 15.87938,3.64079 18.78751,4.72144 2.90813,1.08065 6.05813,1.96893 7,1.97396 0.94187,0.005 3.96249,1.11596 6.71249,2.46873 6.32621,3.11197 9.56161,3.1327 15.36467,0.0985 14.44314,-7.55186 16.53978,-8.07765 32.13533,-8.05884 15.73825,0.019 17.40931,0.42637 31.45527,7.66833 5.60512,2.88995 6.42828,3.0373 14,2.5061 13.33013,-0.93519 26.68399,-7.26657 33.88027,-16.06346 6.279,-7.67557 8.11599,-12.332 8.13803,-20.62846 0.0177,-6.67015 -0.36095,-8.20321 -3.42236,-13.85547 -3.66584,-6.76821 -6.2389,-9.26437 -27.05121,-26.24275 -27.35397,-22.31493 -41.30877,-38.33143 -52.06996,-59.76283 -3.94844,-7.8635 -7.79845,-14.535 -8.55557,-14.8255 -1.3436,-0.5156 -9.67253,0.8826 -27.87447,4.6793 -16.48579,3.4386 -32.52433,6.0603 -43.31889,7.0809 -5.87461,0.5554 -14.50611,1.4373 -19.18111,1.9599 -20.82635,2.3278 -40.89063,3.0696 -67,2.4768 -30.01476,-0.6814 -34,-1.045 -34,-3.1026 0,-1.8415 2.20849,-2.2005 18,-2.9262 7.425,-0.3412 20.475,-1.4748 29,-2.5191 8.525,-1.0443 22.25,-2.3787 30.5,-2.9654 8.25,-0.5867 18.375,-1.6951 22.5,-2.4631 4.125,-0.7681 12.45,-1.914 18.5,-2.5464 6.05,-0.6325 13.25,-1.7676 16,-2.5226 2.75,-0.7549 8.6,-1.8459 13,-2.4243 4.4,-0.5785 12.275,-1.9768 17.5,-3.1074 31.27559,-6.7673 31.90425,-6.9157 59.5,-14.0405 11.4039,-2.9443 41.02744,-11.6821 47.33898,-13.9632 6.24699,-2.2577 15.37787,-2.6582 14.60362,-0.6406 -0.27205,0.709 -4.32007,3.265 -8.99561,5.6801 -9.67107,4.9955 -10.51174,5.7545 -9.45455,8.5363 1.41747,3.7298 10.02606,12.3262 16.78557,16.7618 6.54357,4.2938 25.19969,13.7004 30.22199,15.2381 1.375,0.421 6.325,2.3284 11,4.2386 4.675,1.9102 13.225,5.3914 19,7.7362 20.71665,8.4112 29.22176,12.7808 45.5,23.376 9.44687,6.1488 26.53742,20.39311 34.53755,28.78569 32.40994,33.99983 52.56335,78.19633 56.02284,122.85826 3.26614,42.16571 -4.56811,77.69036 -25.01117,113.41399 -2.74541,4.79751 -7.23762,11.72734 -9.9827,15.39961 -7.28362,9.74378 -7.63487,10.57005 -5.41691,12.74243 1.01772,0.99679 5.22539,3.69938 9.35039,6.00574 18.83327,10.53004 30.6428,22.01501 39,37.92818 3.025,5.75999 7.12538,12.9561 9.11195,15.99137 7.11798,10.87553 19.08436,20.96405 36.04285,30.38672 3.66014,2.03369 7.20274,4.35784 7.87244,5.16479 4.27942,5.15638 -13.59537,9.44265 -49.02724,11.75644 -4.20911,0.27486 -13.86239,-0.26865 -22,-1.23867 z m 37.6981,-10.25093 c 6.88254,-0.99511 8.3019,-1.50802 8.3019,-3 0,-0.98982 -0.34961,-1.79967 -0.77691,-1.79967 -1.16511,0 -10.55643,-7.2289 -17.18959,-13.23157 -7.93584,-7.18152 -18.28309,-20.4529 -25.5335,-32.74927 -10.28048,-17.43521 -14.03884,-21.4757 -26.55878,-28.55239 -9.70099,-5.48332 -22.11924,-9.25393 -32.94122,-10.00209 -11.70883,-0.80947 -15.28368,0.2246 -14.81638,4.28581 0.27966,2.43037 0.95478,2.90528 5.81638,4.09151 3.025,0.7381 8.425,3.24256 12,5.56547 11.05027,7.18008 12.03046,7.70938 17.02203,9.19171 6.37713,1.89381 16.47797,7.24455 16.47797,8.72891 0,1.56788 -13.71947,2.10993 -19,0.75068 -10.62222,-2.73424 -12.02038,-1.06402 -3.7801,4.51563 5.35265,3.62438 16.9371,9.66586 23.60865,12.31229 4.39645,1.74396 2.71398,3.55614 -3.61333,3.89189 -4.13904,0.21964 -7.62871,-0.41211 -13.1983,-2.38936 -4.16434,-1.47837 -7.89002,-2.36946 -8.27928,-1.98019 -1.34295,1.34294 9.42723,8.76304 23.51531,16.20084 16.94029,8.94362 18.74705,9.99764 18.74705,10.93655 0,1.88913 -7.71865,1.53639 -13.32434,-0.60891 -12.90147,-4.93742 -21.81312,-9.28465 -29.02909,-14.16083 -3.10561,-2.09861 -7.44657,-5.00098 -9.64657,-6.4497 -2.2,-1.44872 -8.83093,-7.51945 -14.73539,-13.49051 -10.34243,-10.45908 -13.01347,-12.28936 -14.01924,-9.60647 -0.84026,2.24139 0.64189,4.49135 8.10898,12.30975 12.34856,12.92951 26.48453,23.64363 40.14565,30.4277 3.575,1.77533 7.38132,3.69184 8.45849,4.25889 7.22141,3.80158 20.03773,7.05026 40.15253,10.17783 11.46613,1.78283 14.07247,1.82346 24.08708,0.3755 z m -406.1981,-10.69718 c 21.98288,-4.67908 45.41464,-15.92545 61.05083,-29.30211 18.39152,-15.73385 31.8428,-37.71088 38.03654,-62.14507 3.03959,-11.99109 2.94926,-18.00777 -0.27723,-18.46698 -2.32186,-0.33046 -4.73307,3.92215 -12.36714,21.81167 -14.59212,34.19489 -33.3556,55.29069 -61.26649,68.88198 -10.74969,5.23459 -17.66267,7.66667 -32.17651,11.32011 -11.09637,2.7932 -13.43075,3.0311 -31,3.15928 -18.59055,0.13564 -19.17943,0.0758 -27.32599,-2.77693 -9.11994,-3.19359 -16.90581,-9.10852 -19.16318,-14.5583 -1.41944,-3.42683 -4.01083,-4.06906 -4.01083,-0.99402 0,2.94331 2.74894,9.07173 5.27555,11.76119 3.91933,4.17193 12.31615,8.17907 22.36165,10.67144 13.23034,3.28255 14.29162,3.37816 33.8628,3.0507 12.66833,-0.21197 19.54804,-0.8268 27,-2.41296 z m 98.3428,-4.18282 c 36.86934,-7.88839 63.15573,-23.50272 84.52506,-50.20858 7.50622,-9.38074 6.03601,-10.57104 -7.65596,-6.19832 -5.88735,1.8802 -9.9609,2.48723 -16.69098,2.48723 -5.2084,0 -9.17552,-0.44113 -9.55986,-1.06301 -1.16455,-1.88428 2.60396,-4.78521 7.61141,-5.85911 2.68067,-0.5749 6.56684,-1.95261 8.63593,-3.06158 2.06909,-1.10896 4.40007,-2.0163 5.17995,-2.0163 0.77988,0 4.27524,-1.35 7.76748,-3 3.49223,-1.65 6.70953,-3 7.14955,-3 1.76762,0 21.99301,-14.04954 26.27948,-18.255 6.62847,-6.5032 12.23458,-15.40843 14.88065,-23.63774 1.9416,-6.03837 2.22333,-8.56073 1.77507,-15.89241 -1.13479,-18.56045 -10.64793,-35.15446 -31.93761,-55.70958 -13.12018,-12.66748 -15.69786,-15.67292 -15.76753,-18.3841 -0.0277,-1.0785 1.05364,-1.23436 4.96456,-0.71556 3.90833,0.51846 5,0.36149 5,-0.71895 0,-3.7432 -31.59727,-29.42273 -33.66224,-27.35775 -0.66941,0.6694 1.76308,8.7683 3.34695,11.1436 1.87054,2.8052 1.76021,11.52749 -0.14581,11.52749 -0.8036,0 -5.39821,-5.45571 -10.21022,-12.1238 -14.63258,-20.27659 -26.80376,-31.96141 -40.82203,-39.19079 -5.50032,-2.83658 -6.97604,-3.12799 -17.50665,-3.45709 l -11.5,-0.35939 -8,3.92755 c -4.43302,2.17636 -10.80356,6.44137 -14.2878,9.56553 -8.77635,7.86936 -12.25013,7.60155 -13.67731,-1.05444 -0.38018,-2.30584 -1.21856,-4.6282 -1.86306,-5.16081 -1.65147,-1.36473 -19.49685,-7.14676 -22.05744,-7.14676 -1.16641,0 -5.26932,-0.92807 -9.11757,-2.06238 -8.50223,-2.50611 -38.07699,-3.9055 -42.85551,-2.02779 -3.69722,1.45281 -3.15627,2.09679 9.21717,10.97277 22.49161,16.13415 46.36905,40.83465 48.68906,50.3674 0.57578,2.36583 0.36371,2.75 -1.51809,2.75 -2.10563,0 -5.81159,-2.86804 -22.02945,-17.04857 -17.17357,-15.01618 -36.72787,-27.13224 -60,-37.17666 -18.92285,-8.16723 -35.48226,-12.47064 -32.04368,-8.3274 0.66067,0.79606 3.30327,2.2034 5.87245,3.12743 9.87674,3.55227 30.22263,13.10753 42.8324,20.11583 28.02963,15.57844 48.18512,30.31884 68.73019,50.26478 11.49962,11.16426 14.87136,14.84678 34.02309,37.15903 4.90295,5.71206 14.19709,15.64557 20.65365,22.07446 9.27333,9.23362 13.27453,12.4621 19.0485,15.36982 6.65632,3.35207 7.84865,3.63432 13.34636,3.15936 7.57953,-0.65481 13.94907,-3.50201 20.67157,-9.24024 5.70448,-4.86925 9.1725,-5.64119 10.89384,-2.42484 0.86927,1.62426 0.65558,2.96841 -1.02325,6.43643 -2.99545,6.18778 -8.52982,10.77198 -16.83696,13.94631 -6.85937,2.62112 -11.16816,6.1644 -11.16816,9.18401 0,0.74252 -1.13304,5.29433 -2.51787,10.11514 -8.63861,30.07241 -24.85378,53.36896 -54.28495,77.99193 -6.21655,5.20094 -11.13078,9.97757 -10.92051,10.61472 0.66205,2.00611 6.72475,2.5563 23.06613,2.09326 10.7047,-0.30333 18.97479,-1.11903 25.5,-2.51513 z m 1.16317,-131.53331 c -6.05759,-1.70388 -13.22175,-6.96916 -15.51407,-11.40201 -1.31454,-2.54206 -1.30498,-3.02841 0.087,-4.42034 1.91619,-1.91619 1.8399,-1.91595 5.51065,-0.0177 6.12343,3.16655 20.64737,7.28845 27.75584,7.87712 7.95425,0.65871 11.15466,1.83106 11.15466,4.0861 0,4.51974 -18.10292,6.94033 -28.99403,3.87686 z m -24.80597,-31.58636 c -1.93368,-1.93368 -1.4378,-3.40361 2.8,-8.3 2.2,-2.5419 4,-5.03033 4,-5.52985 0,-0.49951 -3.35416,-5.19907 -7.45369,-10.44346 -21.78787,-27.87253 -23.32749,-52.58973 -4.0641,-65.24539 14.18503,-9.31927 36.44226,-6.11581 53.10344,7.64314 13.17662,10.88137 20.94572,25.18547 25.45339,46.86361 1.70726,8.21049 3.35763,13.21195 4.35965,13.21195 2.80492,0 12.71277,2.71098 18.83133,5.15262 9.00927,3.59519 12.83906,7.20687 10.31673,9.7292 -1.31795,1.31795 -2.34929,1.35257 -7.65386,0.25693 -10.62875,-2.19533 -29.86975,-3.34158 -44.72179,-2.66421 -11.51299,0.52508 -16.91729,1.31551 -27.5,4.02214 -7.24411,1.85276 -15.14018,4.07395 -17.54683,4.93598 -5.23848,1.87637 -8.30185,1.98976 -9.92427,0.36734 z m 41.46124,-23.31629 c 3.76132,-0.79694 8.78084,-1.4568 11.1545,-1.46635 9.09152,-0.0366 10.00628,-2.85897 5.27302,-16.26924 -9.14024,-25.89606 -23.51553,-40.87596 -39.0351,-40.67688 l -5.55366,0.0712 6,1.72062 c 7.4043,2.12333 12.58754,5.56936 17.72117,11.78176 5.67584,6.86855 7.02001,9.9937 7.56309,17.58394 0.56639,7.91611 -0.33388,9.51564 -5.8524,10.39809 -4.1535,0.66417 -5.47986,2.48064 -3.92827,5.37981 2.99812,5.60205 -1.2342,10.16536 -10.01729,10.80067 -5.75613,0.41636 -6.85343,0.96761 -5.2363,2.63053 0.96563,0.99297 13.116,-0.0907 21.91124,-1.95419 z m -32.62607,-35.0019 c 5.77582,-2.98679 4.74221,-10.37805 -2.08289,-14.89469 -4.65011,-3.0773 -6.39902,-2.59192 -8.99488,2.49638 -2.59101,5.07881 -2.47014,7.1537 0.63149,10.83977 2.90891,3.45705 5.90932,3.90469 10.44628,1.55854 z m 83.13666,215.47733 c 14.55011,-2.40869 28.25194,-5.9265 39.32817,-10.09714 10.4122,-3.92061 27.18753,-12.2785 31,-15.44497 l 3,-2.49168 -2.14049,-1.71267 c -1.17726,-0.94198 -3.54758,-2.48373 -5.26736,-3.42613 -6.92225,-3.79324 -4.39763,-7.78655 4.92275,-7.78655 11.76242,0 28.99476,-7.21291 34.51116,-14.44527 5.81508,-7.62397 6.84208,-11.8513 6.91049,-28.44489 0.0553,-13.42288 0.28325,-15.52891 1.783,-16.47568 2.55627,-1.61372 7.85769,4.00624 11.75477,12.46106 l 3.18262,6.90478 5.83974,0 c 8.51218,0 9.0049,-0.34826 8.99391,-6.35699 -0.0137,-7.50741 -3.73662,-24.83151 -5.77038,-26.85195 -1.01514,-1.00849 -4.79427,-2.18088 -9.22021,-2.86035 -4.125,-0.63328 -8.69156,-1.76455 -10.1479,-2.51395 -1.45635,-0.74939 -4.69933,-1.82226 -7.20663,-2.38416 -5.11726,-1.1468 -14.14547,-6.45504 -14.14547,-8.31698 0,-1.70869 5.24664,-2.1081 9.7942,-0.74562 3.59998,1.07858 21.44668,4.03 24.36867,4.03 0.73542,0 1.3369,-0.7875 1.33663,-1.75 -5.4e-4,-1.8572 -2.85776,-9.75061 -5.33914,-14.75 -3.18222,-6.4114 -6.66036,-15.53443 -6.66036,-17.46987 0,-5.14238 6.6067,0.16299 12.12044,9.73306 3.7899,6.57803 9.83193,19.19885 10.53805,22.01227 1.02336,4.0774 4.37043,5.31234 16.07103,5.92959 12.35951,0.65202 15.27048,-0.18422 15.27048,-4.38681 0,-2.91152 -4.49113,-17.35412 -8.495,-27.31824 -3.71185,-9.2374 -5.50147,-10.54536 -15.57859,-11.38576 -15.51805,-1.29416 -17.99212,-4.9408 -5.49947,-8.10589 4.35982,-1.10459 8.10817,-2.56591 8.32967,-3.24737 0.66538,-2.04704 -5.54694,-11.91565 -17.16087,-27.26098 -11.04034,-14.58745 -16.26916,-22.65991 -15.30327,-23.62581 0.8296,-0.8296 5.77405,2.13937 11.34847,6.81436 6.88304,5.77246 21.02595,22.07994 29.4809,33.99296 3.77916,5.32483 7.72464,9.95238 8.76774,10.28344 2.94752,0.93551 20.20501,-1.41852 24.11042,-3.28881 2.17804,-1.04306 3.61898,-2.51286 3.815,-3.89144 0.70684,-4.97089 -18.40433,-36.23474 -23.85535,-39.02483 -1.78355,-0.91291 -5.51234,-1.08369 -13.56527,-0.6213 -8.32628,0.47809 -11.29725,0.3276 -11.87135,-0.60131 -1.2868,-2.08209 2.66034,-4.93416 8.31203,-6.00598 6.29429,-1.19369 7.16494,-1.64412 7.16494,-3.70682 0,-2.13413 -9.54479,-11.37948 -25.83884,-25.02823 -13.43861,-11.25687 -18.95779,-16.83294 -17.80361,-17.98712 0.32187,-0.32187 4.0856,0.8004 8.36383,2.49392 4.27824,1.69353 9.01612,3.37943 10.52862,3.74646 1.5125,0.36703 2.75,1.25744 2.75,1.97869 0,0.72124 3.2625,3.67397 7.25,6.56162 8.01761,5.80614 23.13338,18.40979 26.24764,21.88548 4.15355,4.6356 10.29276,6.1955 15.93726,4.04947 3.25258,-1.23663 3.44829,-5.56888 0.52441,-11.60881 -2.39403,-4.9454 -12.38957,-16.12862 -19.29316,-21.5856 -5.48282,-4.33392 -8.02003,-4.65795 -21.16457,-2.70294 -4.16906,0.62007 -7.86054,0.84697 -8.20329,0.50423 -1.47145,-1.47145 1.96089,-5.89433 5.72024,-7.37104 6.02076,-2.36503 5.32706,-4.04557 -3.908,-9.46739 -2.53579,-1.48875 -6.43649,-3.57316 -8.66822,-4.63204 -3.43359,-1.62911 -7.44231,-5.73676 -7.44231,-7.62598 0,-0.97117 4.81738,-0.55782 10.20121,0.87532 6.79317,1.80829 15.43166,5.68799 24.00327,10.78029 5.2084,3.09425 7.39255,3.87618 9.41169,3.36941 2.34817,-0.58935 2.57045,-1.02275 2.07871,-4.05299 -0.92734,-5.71452 -10.79036,-19.58427 -16.60693,-23.35328 -6.85767,-4.44362 -9.85518,-5.15393 -21.74956,-5.15393 -13.76071,0 -15.64863,-0.91196 -11.35322,-5.48421 1.80675,-1.9232 1.8494,-2.30696 0.47453,-4.26986 -0.89655,-1.28001 -3.83771,-2.8113 -7.23517,-3.76693 -9.89857,-2.78426 -16.59045,-10.58534 -7.85642,-9.15865 1.72254,0.28138 6.50689,0.99155 10.63189,1.57816 4.125,0.58662 9.66179,1.57514 12.30398,2.19672 2.64218,0.62158 5.01523,0.91889 5.27343,0.66069 0.85513,-0.85513 -13.77665,-13.94122 -17.17604,-15.36158 -2.05703,-0.85948 -6.97095,-1.39434 -12.81023,-1.39434 -5.41944,0 -9.74545,-0.44066 -10.10955,-1.0298 -0.35005,-0.5664 0.78615,-2.65 2.52489,-4.6304 2.89878,-3.3015 3.02837,-3.7335 1.56029,-5.2016 -1.1096,-1.1096 -3.97477,-1.7167 -9.33392,-1.9778 -8.4302,-0.4107 -10.23285,-1.2317 -10.23285,-4.6604 0,-2.8274 -0.95481,-3.5715 -9,-7.0139 -43.10493,-18.4436 -63.43978,-28.9854 -84.68793,-43.9029 -7.38795,-5.1868 -11.02547,-6.6033 -14.06725,-5.4781 -7.49875,2.774 3.60396,16.2575 21.25518,25.8131 18.38347,9.952 31.76248,19.6018 42.97318,30.995 3.83525,3.8978 7.53192,7.0868 8.21482,7.0868 1.58492,0 2.86791,-2.4983 3.72711,-7.2576 0.80675,-4.4687 4.34449,-7.2705 8.0166,-6.3489 2.94807,0.7399 12.15707,14.1652 15.84978,23.1065 6.90947,16.73013 7.94925,21.2706 7.90025,34.49834 -0.0395,10.67195 -0.42732,13.67252 -2.64963,20.50166 -2.89815,8.90603 -6.75513,16.68328 -12.74901,25.70724 -6.16512,9.28176 -23.86403,26.37267 -36.7831,35.5195 -6.325,4.47816 -12.5125,8.86763 -13.75,9.75437 -1.2375,0.88674 -2.25,2.52659 -2.25,3.6441 0,1.17501 4.1171,6.53201 9.76306,12.70331 25.09537,27.43042 38.71169,47.6351 45.47278,67.47517 2.82394,8.2867 3.13467,10.38323 3.14151,21.19631 0.007,10.36717 -0.34198,12.9774 -2.56141,19.18312 -3.75948,10.51177 -8.61612,18.56188 -17.98857,29.81688 -4.58006,5.5 -9.88212,12.925 -11.78237,16.5 -9.26995,17.43989 -26.79294,35.3313 -52.295,53.3945 -10.46057,7.40927 -9.44599,7.85365 10.42183,4.56464 z m -182.17183,-29.9396 c 16.04162,-3.31241 30.64634,-9.0781 41.5,-16.3835 17.21464,-11.58685 24.72707,-24.14362 17.75,-29.6685 -2.42578,-1.92089 -3.63424,-2.12104 -10.25,-1.6977 -8.66078,0.55421 -15.36878,3.28751 -26.85278,10.94166 -8.22204,5.48004 -11.45897,5.91713 -11.95631,1.61449 -0.17,-1.47071 0.6175,-4.49028 1.75,-6.71016 3.45946,-6.7811 1.97517,-12.17613 -2.92226,-10.62175 -3.32849,1.05642 -13.99565,10.06757 -19.27555,16.28314 -6.51974,7.67512 -12.68045,20.21559 -13.41164,27.30014 -0.5477,5.30672 -0.43606,5.65684 2.62498,8.23254 3.9373,3.31301 7.80418,3.44341 21.04356,0.70964 z m 345.06202,-65.18979 c 2.82421,-3.39363 6.28744,-7.9118 7.69607,-10.04038 3.62494,-5.47766 2.39169,-6.28937 -9.55554,-6.28937 l -9.70255,0 0.10275,3 c 0.16636,4.85734 1.62007,14.8187 2.51736,17.25 1.32895,3.60088 3.46044,2.66641 8.94191,-3.92025 z m 28.34152,-50.20755 c 2.6852,-6.07171 4.59646,-14.04342 4.59646,-19.17142 0,-3.88708 -0.92718,-4.16706 -8.30718,-2.5085 -2.30605,0.51826 -5.47837,1.21389 -7.04959,1.54585 -2.46074,0.5199 -2.78922,0.97844 -2.36946,3.30772 0.98398,5.4603 8.79729,22.20415 10.36128,22.20415 0.2146,0 1.46041,-2.42001 2.76849,-5.3778 z m 7.59646,-74.4222 c 0,-2.10574 -1.84494,-4.2 -3.7,-4.2 -1.79573,0 -1.62714,1.98104 0.35499,4.17126 2.09979,2.32024 3.34501,2.33094 3.34501,0.0287 z m -183.65589,-22.0069 c 5.5362,-5.36362 14.96274,-16.76225 18.83027,-22.76967 2.97212,-4.6166 8.82562,-16.80544 8.82562,-18.37775 0,-0.57074 1.01109,-3.85201 2.24687,-7.2917 1.97489,-5.49693 2.24692,-8.19079 2.24721,-22.25398 3.3e-4,-15.31754 -0.13079,-16.3698 -3.07402,-24.66976 -4.36708,-12.31523 -11.55813,-23.76474 -20.92006,-33.30884 -8.16495,-8.3237 -13.16542,-11.9267 -33.59454,-24.2061 -13.30539,-7.9974 -24.74941,-16.4002 -30.13132,-22.1239 -4.45536,-4.7383 -8.02918,-5.9095 -11.36415,-3.7244 -3.30702,2.1669 -3.82127,5.2762 -2.44774,14.7997 1.34294,9.3114 5.55298,18.037 11.94453,24.756 4.32121,4.5425 6.27384,4.8352 12.39994,1.8589 l 4.36021,-2.1183 3.65416,2.3683 c 4.12647,2.6745 4.59474,4.7296 1.67891,7.3684 -3.00786,2.7221 -2.55923,6.8517 1.07673,9.9111 5.41643,4.5576 9.72798,3.2393 15.05349,-4.6028 2.21552,-3.2625 4.71298,-6.1946 5.54992,-6.5158 1.86841,-0.717 3.28412,1.3405 3.30455,4.8025 0.0176,2.9887 2.22796,5.2304 6.51531,6.6078 1.65,0.5301 2.94929,1.3764 2.88731,1.8805 -0.062,0.5042 -2.08607,2.0708 -4.49799,3.4814 -8.23079,4.81379 -8.84372,10.21619 -1.94211,17.1178 2.8824,2.8824 4.62662,3.8175 7.12069,3.8175 3.38279,0 7.9321,-3.2104 7.9321,-5.59759 0,-2.47248 5.12972,-7.40241 7.70239,-7.40241 2.32213,0 2.46967,0.26065 1.83955,3.25 -0.37678,1.7875 -0.91915,5.35579 -1.20526,7.92953 -0.51024,4.58993 -0.44186,4.72898 3.57156,7.26254 2.25047,1.42066 4.09176,2.93737 4.09176,3.37047 0,1.6262 -2.49277,3.18746 -5.08922,3.18746 -1.47906,0 -3.71573,0.83122 -4.97036,1.84716 -2.0237,1.6387 -2.28289,2.73908 -2.29658,9.75 -0.008,4.34656 0.35085,10.66205 0.79852,14.03442 0.95924,7.22612 -0.49734,14.8223 -4.0266,20.99904 -3.94088,6.89715 -15.1202,16.3299 -25.9187,21.86938 -5.36077,2.75 -9.97881,5.60162 -10.2623,6.33693 -0.756,1.96083 3.35227,5.51398 11.03644,9.54519 8.09723,4.2479 9.70707,3.9472 17.07291,-3.18902 z m 36.03813,-23.8701 c 3.1826,-3.20265 7.36005,-8.63149 9.28324,-12.0641 1.92318,-3.4326 3.89851,-6.48943 4.38962,-6.79296 0.49112,-0.30352 1.53396,-2.67003 2.31743,-5.2589 0.78347,-2.58887 2.14239,-6.05704 3.01982,-7.70704 0.94175,-1.77095 1.56551,-5.25326 1.52254,-8.5 -0.0831,-6.28219 -0.95746,-4.71153 -2.92245,5.25 -0.62383,3.1625 -1.54319,5.75 -2.04301,5.75 -0.49983,0 -1.8421,1.82944 -2.98281,4.06543 -1.14072,2.23599 -2.61236,3.89004 -3.27032,3.67568 -0.65797,-0.21437 -1.67835,-2.35602 -2.26751,-4.75922 -1.15377,-4.70619 -1.80602,-4.47514 -2.87415,1.01811 -0.65004,3.34308 -1.70351,5.78762 -9.94395,23.07459 -1.98588,4.16603 -3.61069,8.11936 -3.61069,8.78519 0,1.96641 3.03044,-0.14495 9.38224,-6.53678 z m 10.61776,-45.44103 c 0,-1.74536 -0.41821,-2.74153 -1,-2.38197 -0.55,0.33992 -1,1.96803 -1,3.61803 0,1.74536 0.41821,2.74153 1,2.38197 0.55,-0.33992 1,-1.96803 1,-3.61803 z m 0.85943,-21.38197 c 0,-5.5 -0.38674,-10.9 -0.85943,-12 -0.53355,-1.24164 -0.85943,3.3085 -0.85943,12 0,8.6915 0.32588,13.24164 0.85943,12 0.47269,-1.1 0.85943,-6.5 0.85943,-12 z m -360.85943,268.55078 c -1.375,-0.46828 -4.20985,-0.89628 -6.29966,-0.9511 -7.42807,-0.19487 -22.39138,-10.06841 -26.71737,-17.62945 -2.83957,-4.96304 -2.98297,-5.77135 -2.98297,-16.81402 l 0,-11.60034 -5.51162,-1.60227 c -6.87823,-1.99956 -10.87256,-5.30482 -14.09453,-11.66308 -1.49262,-2.94554 -3.75192,-5.62531 -5.58106,-6.61974 -13.988,-7.60466 -24.44542,-17.33283 -29.435,-27.38234 -7.84385,-15.79829 -7.70536,-15.11874 -8.14145,-39.94867 -0.33387,-19.01009 -0.12555,-23.68144 1.29328,-29 0.93019,-3.48687 2.29626,-8.81477 3.0357,-11.83977 2.95884,-12.10434 6.79727,-21.83338 15.05492,-38.15885 4.27277,-8.44732 5.27755,-11.84115 3.50571,-11.84115 -0.48072,0 -2.9589,1.16525 -5.50705,2.58944 -3.99258,2.23149 -5.60302,2.54462 -11.65043,2.26524 l -7.01742,-0.32418 -3.74973,4.96126 c -7.27116,9.62046 -18.38691,11.13852 -26.45479,3.61289 -3.41844,-3.18869 -4.07593,-4.47735 -4.49161,-8.80349 -0.70341,-7.32047 1.09334,-11.7119 6.47235,-15.81909 3.31379,-2.53026 5.57399,-3.48207 8.26865,-3.48207 5.05548,0 10.03411,-3.54 12.66842,-9.00773 1.19039,-2.47075 3.5607,-5.82144 5.26735,-7.44598 2.62202,-2.49587 4.06911,-3.01034 9.33566,-3.31905 5.62145,-0.32951 6.772,-0.0399 11.73265,2.95371 7.95962,4.80334 10.31827,9.71782 9.66743,20.14305 -0.48811,7.8185 -0.48702,7.82272 1.55177,6 1.92273,-1.71897 3.42825,-3.78065 10.00988,-13.70773 3.7356,-5.63441 9.39067,-17.4268 10.22371,-21.31931 0.37702,-1.76167 1.59759,-4.36258 2.71238,-5.77981 1.62887,-2.07078 2.13225,-4.58364 2.5635,-12.79696 0.29515,-5.6211 0.99761,-11.11019 1.56102,-12.19789 1.02054,-1.9703 1.02738,-1.9703 1.81902,0 1.11867,2.7842 -0.15289,20.56584 -1.64312,22.9777 -0.67966,1.1 -1.52413,4.3336 -1.8766,7.18578 -1.01274,8.19529 -6.99185,20.83085 -17.42037,36.81422 -11.59886,17.77712 -23.83593,44.30291 -26.29563,57 -0.53274,2.75 -1.9596,7.925 -3.1708,11.5 -1.96425,5.79768 -2.20219,8.55293 -2.20219,25.5 0,18.49462 0.0776,19.21279 2.91638,27 4.91461,13.48143 12.41168,23.03269 24.03246,30.61732 5.88977,3.84413 7.33218,4.27887 12.93677,3.89905 3.28825,-0.22284 4.57705,1.25717 4.59908,5.28138 0.0175,3.19235 4.23726,7.70225 7.20679,7.70225 2.73563,0 6.80852,-4.47167 6.80852,-7.47515 0,-1.90048 -1.15444,-3.37979 -4.45074,-5.70324 -3.70266,-2.60987 -4.28609,-3.44483 -3.47114,-4.96758 3.17924,-5.94047 15.83474,-1.79692 19.85093,6.4994 2.87245,5.93369 2.59837,9.87707 -1.17905,16.96424 -2.97749,5.58635 -3.25,6.85581 -3.25,15.13998 0,10.27265 2.10016,17.29607 6.11662,20.45542 1.99104,1.56615 3.47672,1.82958 7.80126,1.38325 4.0901,-0.42214 6.05884,-0.12778 8.40165,1.25615 2.69141,1.58985 3.52957,1.65244 6.9615,0.5198 4.78604,-1.57954 12.64179,-10.16471 11.78146,-12.87539 -1.16856,-3.68181 1.35105,-17.08288 4.30933,-22.92003 3.16588,-6.2468 5.80421,-9.06836 10.87818,-11.63369 1.7875,-0.90374 4.50365,-2.30305 6.03589,-3.10959 3.88645,-2.04574 19.03694,-0.9898 22.94112,1.59892 4.40841,2.92306 5.59979,3.5855 8.52529,4.7403 3.26263,1.28787 6.73871,6.56715 6.74396,10.24235 0.002,1.43833 -0.92892,3.80083 -2.06884,5.25 -2.7689,3.52009 -8.56439,3.64558 -12.60069,0.27286 -3.63,-3.03322 -12.85493,-5.7744 -15.70261,-4.66603 -3.83053,1.49092 -7.89423,6.75149 -8.68474,11.24261 -0.41486,2.35698 -1.22971,6.9182 -1.81079,10.13605 -0.58107,3.21785 -2.14317,7.71785 -3.47133,10 -1.32816,2.28215 -2.71989,5.56521 -3.09273,7.29568 -0.81809,3.79699 -2.40684,5.26524 -9.47991,8.7609 -5.93886,2.9351 -12.20476,3.96493 -16.08462,2.64357 z m 22.98469,-18.80078 c -0.0363,-1.77777 -1.74659,-3.44427 -2.41871,-2.35676 -0.37621,0.60872 -0.4059,1.55676 -0.066,2.10676 0.72089,1.16642 2.50707,1.34614 2.48469,0.25 z M 130.00876,-934.04334 c 0.21834,-1.88992 -0.29883,-3.00854 -1.75,-3.78519 -2.78808,-1.49213 -6.05993,0.30926 -6.05993,3.33645 0,3.10308 0.88109,3.77985 4.46406,3.42887 2.4579,-0.24077 3.09495,-0.80818 3.34587,-2.98013 z m 26.44007,-13.97069 c 2.39923,-2.83539 2.19482,-6.4216 -0.47251,-8.28987 -2.62992,-1.84206 -9.86909,-2.0651 -11.57749,-0.3567 -2.07847,2.07847 -1.31387,5.83998 1.82517,8.97901 2.42495,2.42496 3.56579,2.89725 5.75,2.38044 1.49866,-0.3546 3.51233,-1.5754 4.47483,-2.71288 z m 40.25,80.4918 c -7.05498,-3.71929 -11.5,-10.44077 -11.5,-17.38957 0,-4.86584 3.79353,-9.91938 11.62686,-15.48867 5.69024,-4.04561 9.91504,-4.44272 16.63235,-1.56334 8.44683,3.62073 13.0315,12.40961 11.29683,21.6562 -0.74002,3.94464 -6.34049,10.76706 -10.68123,13.01175 -3.67536,1.9006 -13.58513,1.77149 -17.37481,-0.22637 z m 7.25634,-14.40327 c 3.43452,-1.19728 5.80238,-5.59938 4.76684,-8.86205 -0.36211,-1.14092 -2.20397,-3.25327 -4.09302,-4.69411 -3.11811,-2.37831 -3.71441,-2.50384 -6.47061,-1.36218 -5.74762,2.38074 -6.68761,8.40903 -2.03647,13.06016 3.2793,3.2793 3.56333,3.34668 7.83326,1.85818 z m 21.65496,-18.82605 c -5.05202,-3.08069 -7.4113,-6.835 -7.4113,-11.79357 0,-6.08614 2.04681,-9.49533 7.99084,-13.3096 4.15702,-2.66756 5.72797,-3.15092 8.68242,-2.67148 8.62906,1.40031 15.15653,9.16475 13.95084,16.59457 -1.67581,10.32678 -14.4906,16.49883 -23.2128,11.18008 z m 9.57792,-12.59606 c 1.75093,-2.10974 0.50737,-5.90926 -2.45252,-7.49335 -2.20502,-1.18009 -2.76656,-1.12159 -4.52698,0.47157 -2.24769,2.03412 -2.63035,5.48816 -0.80972,7.30879 1.67107,1.67107 6.30589,1.50029 7.78922,-0.28701 z m 54.45611,-20.4719 c -2.97543,-1.20503 -8.41866,-7.73777 -8.60377,-10.32589 -0.29467,-4.11971 0.16566,-5.9166 2.27439,-8.87804 2.25207,-3.16274 3.07284,-3.07049 3.60323,0.40495 0.6011,3.93882 3.14735,6.75789 6.10387,6.75789 3.62196,0 5.17695,-1.66555 5.17695,-5.54501 0,-3.33262 -2.03044,-5.77059 -5.75,-6.9041 -2.84189,-0.86604 -2.84982,-2.01735 -0.0275,-3.99419 8.289,-5.80584 22.76794,6.5232 20.1474,17.15583 -0.93073,3.77633 -5.08674,9.08968 -8.4839,10.84642 -3.01125,1.55718 -11.11793,1.82784 -14.44068,0.48214 z m -61.32985,-12.54221 c -8.84312,-2.75774 -15.91398,-12.81314 -14.57657,-20.72919 0.70359,-4.1645 6.55446,-11.16386 12.69563,-15.18771 4.34665,-2.84803 12.50865,-2.50856 18.07176,0.75164 6.97869,4.08978 9.6937,8.69659 9.6937,16.44817 0,9.43942 -3.92941,15.15294 -12.77024,18.56847 -5.05369,1.95242 -7.25033,1.97731 -13.11428,0.14862 z m 7.42997,-17.95343 c 3.23616,-3.23615 3.09891,-6.05494 -0.46853,-9.62237 -4.14017,-4.14017 -8.44157,-4.01335 -11.08788,0.32692 -2.5607,4.19985 -2.50665,4.98141 0.59985,8.67327 3.26463,3.87979 7.46068,4.11807 10.95656,0.62218 z m -75.54545,-39.23555 c -0.825,-0.2927 -3.14648,-1.64 -5.15885,-2.9939 -5.87377,-3.9518 -6.73528,-7.7712 -4.29687,-19.0494 0.66659,-3.0831 0.49597,-3.3219 -3.6726,-5.139 -2.40443,-1.0482 -5.94406,-3.5529 -7.86587,-5.5662 -3.38628,-3.5475 -3.50142,-3.9275 -3.72866,-12.3058 -0.17528,-6.4627 0.13679,-9.0555 1.23615,-10.2703 1.18931,-1.3142 1.23305,-1.9479 0.22866,-3.3129 -0.95718,-1.3008 -4.45217,-2.0252 -15.24196,-3.1589 -7.7,-0.809 -16.25,-2.1231 -19,-2.92 -2.75,-0.797 -8.15,-1.7638 -12,-2.1485 -3.85,-0.3846 -9.7,-1.5038 -13,-2.4871 -3.3,-0.9833 -8.025,-2.1011 -10.5,-2.484 -2.475,-0.3829 -6.38781,-1.5462 -8.69514,-2.5851 -2.30732,-1.0388 -5.19383,-1.8888 -6.41445,-1.8888 -2.98937,0 -16.4088,-6.4505 -21.02427,-10.106 -4.48774,-3.5544 -5.63077,-7.5147 -3.40896,-11.8112 1.74373,-3.372 8.0323,-7.0828 12.00298,-7.0828 2.9971,0 3.0237,0.1662 0.91166,5.6965 -1.50709,3.9462 -1.50575,4.4501 0.018,6.7757 1.97998,3.0218 9.90135,7.2275 18.11019,9.6151 3.3,0.9599 7.8,2.4382 10,3.2851 2.2,0.8469 5.40388,1.5596 7.11973,1.5837 1.71585,0.024 5.80504,0.9018 9.08709,1.9502 3.28205,1.0485 9.97818,2.4016 14.88027,3.0069 4.9021,0.6053 11.38791,1.7682 14.41291,2.5842 3.025,0.8161 10.40425,1.9527 16.39833,2.5259 5.99408,0.5731 11.24971,1.2592 11.67918,1.5246 0.42946,0.2654 5.80155,1.1448 11.93796,1.9541 13.6307,1.7978 16.39347,2.9539 16.74188,7.0054 0.14154,1.6459 0.96883,5.4762 1.83841,8.5117 1.50903,5.2676 1.48332,5.8092 -0.56415,11.8871 l -2.14523,6.368 5.05681,4.6733 c 5.16395,4.7723 5.70452,6.2687 5.07648,14.0525 -0.66439,8.2343 -11.94942,15.1733 -20.01967,12.3099 z m 6.4433,-14.5324 c 2.05737,-2.9373 1.96362,-4.3706 -0.4433,-6.7775 -2.22172,-2.2217 -6.94857,-2.6514 -8.8,-0.8 -3.13555,3.1356 0.12867,9.8 4.8,9.8 1.8493,0 3.44599,-0.7986 4.4433,-2.2225 z m -12.76638,-29.0275 c 3.27194,-3.6345 3.4879,-4.5306 1.8536,-7.691 -2.07586,-4.0143 -4.34021,-5.059 -10.96478,-5.059 -4.64201,0 -5.56574,0.2915 -5.56574,1.7566 0,9.8212 9.39625,16.8592 14.67692,10.9934 z m 51.77205,34.7821 c -0.79693,-1.9073 -1.44897,-4.0206 -1.44897,-4.6962 0,-0.6756 -1.19127,-2.9474 -2.64726,-5.0484 -2.22802,-3.215 -2.6301,-4.8265 -2.53895,-10.1758 0.0596,-3.4958 1.02584,-9.6669 2.14726,-13.7137 3.02664,-10.922 2.78031,-12.8662 -2.39886,-18.9337 -2.4408,-2.8595 -6.06336,-8.2925 -8.05014,-12.0733 -1.98678,-3.7809 -4.46018,-7.3281 -5.49645,-7.8827 -1.03626,-0.5545 -5.46399,-1.0083 -9.83939,-1.0083 -4.3754,0 -11.49248,-0.665 -15.81574,-1.4779 -4.32326,-0.8128 -13.98895,-2.1515 -21.47931,-2.9749 -7.49036,-0.8233 -14.89612,-1.9826 -16.45725,-2.5761 -1.56112,-0.5936 -6.45764,-1.5294 -10.88116,-2.0796 -9.31559,-1.1586 -24.20558,-5.4671 -26.88537,-7.7793 -4.95491,-4.2752 -4.03266,-8.1305 2.6733,-11.1753 4.56411,-2.0722 8.35775,-2.4195 10.64312,-0.9743 1.24968,0.7903 1.13563,1.292 -0.75,3.2992 -1.22309,1.3019 -2.2238,2.8568 -2.2238,3.4552 0,1.6813 13.3488,5.3643 25,6.8976 5.775,0.76 11.84171,1.8456 13.48157,2.4123 1.63987,0.5668 8.16487,1.456 14.5,1.976 6.33514,0.52 15.34343,1.678 20.01843,2.5732 10.87105,2.0818 29.19242,2.7278 76.5,2.6972 30.59224,-0.02 39.657,-0.3372 46.5,-1.6284 4.675,-0.8821 13.49449,-2.0395 19.59887,-2.572 6.10438,-0.5325 12.85438,-1.6537 15,-2.4916 2.14562,-0.8379 6.7911,-1.9739 10.32329,-2.5245 8.07722,-1.2591 9.10934,-2.1944 6.82122,-6.1812 -2.46557,-4.296 -2.22688,-4.8758 2.00662,-4.8741 7.95601,0 14.66559,6.3701 11.17203,10.6013 -2.23702,2.7093 -8.83855,5.1413 -15.92203,5.8657 -3.575,0.3656 -8.82343,1.3109 -11.66317,2.1008 -2.83975,0.7898 -10.57958,1.8786 -17.19963,2.4195 -6.62005,0.5409 -15.9578,1.6672 -20.75057,2.503 -4.79276,0.8358 -13.16022,1.811 -18.59435,2.1671 l -9.88024,0.6475 -6.95602,7.881 c -3.82581,4.3346 -6.95602,8.3829 -6.95602,8.9963 0,1.3399 46.82779,0.4013 54,-1.0823 2.475,-0.512 13.275,-1.4377 24,-2.0573 10.725,-0.6195 22.96635,-1.7923 27.20299,-2.6062 4.23664,-0.8138 12.56164,-1.9191 18.5,-2.4561 5.93836,-0.5369 14.17201,-1.8537 18.29701,-2.9261 4.125,-1.0723 9.975,-2.4383 13,-3.0354 6.63246,-1.3093 15.34829,-5.8598 15.80754,-8.2532 0.44932,-2.3416 -4.22092,-6.5543 -10.30754,-9.2977 -2.75,-1.2395 -6.09094,-3.4272 -7.42431,-4.8615 l -2.42432,-2.6079 2.42432,0.01 c 9.55764,0.023 26.79695,5.4583 31.79744,10.0255 4.50993,4.1192 4.3678,8.8002 -0.3862,12.7189 -8.13177,6.7029 -35.75526,13.9396 -69.98693,18.335 -46.55513,5.9777 -59.49229,6.8884 -106.49059,7.4966 -30.54361,0.3953 -29.37426,0.1146 -30.58118,7.3419 -0.32846,1.967 -1.41349,6.7263 -2.41118,10.5763 -0.99768,3.85 -2.12523,8.9185 -2.50565,11.2633 -0.43171,2.6609 -1.96937,5.7926 -4.09104,8.332 -1.86964,2.2379 -4.27878,6.0569 -5.35363,8.4867 -1.07485,2.4297 -2.22753,4.4178 -2.56153,4.4178 -0.33399,0 -1.25929,-1.5605 -2.05623,-3.4679 z m 5.50936,-19.9819 c 1.0247,-1.2347 1.74164,-5.7239 3.28195,-20.5502 0.19945,-1.9199 -0.20435,-2.5 -1.74028,-2.5 -1.73098,0 -2.08379,0.8743 -2.62294,6.5 -0.34261,3.575 -1.37495,8.2205 -2.29409,10.3234 -2.51518,5.7545 -0.033,10.3336 3.37536,6.2268 z m 16.48543,-39.2049 c 4.55339,-1.7136 11.11083,-6.6445 12.64262,-9.5067 2.0842,-3.8944 -0.33504,-4.8496 -11.95882,-4.7217 -5.84516,0.064 -13.55256,0.4018 -17.12756,0.75 -6.1318,0.5972 -6.51764,0.7859 -6.81138,3.3308 -0.64295,5.5704 10.3199,13.4931 16.81138,12.1494 1.375,-0.2847 4.27469,-1.1854 6.44376,-2.0018 z m 43.03043,60.0669 c -0.5358,-0.1305 -2.21583,-0.5112 -3.73339,-0.8461 -3.6769,-0.8113 -8.7408,-7.8255 -8.7408,-12.1073 0,-3.5094 5.97721,-11.7663 10.22503,-14.1248 7.44504,-4.1337 18.77497,3.7066 18.77497,12.9922 0,4.4185 -3.02487,10.0783 -6.33938,11.8615 -2.31639,1.2463 -8.58356,2.6149 -10.18643,2.2245 z m 1.32581,-13.6122 c 1.84676,-1.8468 1.43802,-3.5979 -1.25104,-5.3599 -2.73867,-1.7944 -6.54896,-1.1386 -6.54896,1.1273 0,1.7885 3.55515,5.4326 5.3,5.4326 0.715,0 1.84,-0.54 2.5,-1.2 z m -152.50519,9.1239 c -3.86646,-1.1555 -6.29481,-4.3431 -6.29481,-8.263 0,-2.5484 0.26879,-2.808 2.25,-2.1728 4.13747,1.3266 6.97821,1.0417 8.12329,-0.8147 0.94531,-1.5324 0.60347,-2.2686 -2.12329,-4.5728 -3.88362,-3.2817 -4.04099,-4.5362 -0.83271,-6.6384 1.94549,-1.2747 3.16534,-1.3816 6.25,-0.5478 5.6544,1.5284 8.14902,3.6897 9.33272,8.0857 2.58154,9.587 -6.72935,17.9051 -16.7052,14.9238 z m -36.29481,-41.0448 c -5.775,-0.3415 -16.125,-1.3506 -23,-2.2425 -6.875,-0.8919 -15.875,-2.0309 -20,-2.5311 -33.55843,-4.0692 -55,-13.4808 -55,-24.1418 0,-5.3951 9.10496,-13.9637 14.83786,-13.9637 2.66228,0 2.67802,0.6307 0.16214,6.5 -2.61676,6.1046 -2.55022,6.8037 1.03635,10.8886 2.03015,2.3122 5.09545,4.1755 9.25,5.6226 12.60108,4.3894 33.77411,8.6133 50.21365,10.0174 6.6,0.5637 18.00306,1.9122 25.34013,2.9968 7.77315,1.1489 19.57362,2.0478 28.27742,2.1538 10.53597,0.1283 15.24289,0.5502 15.97444,1.4316 0.75827,0.9137 0.43619,1.5713 -1.19784,2.4458 -2.53029,1.3542 -28.90789,1.8269 -45.89415,0.8225 z m 372.5,-38.5359 c -6.64299,-0.7906 -11.1161,-2.724 -14.78041,-6.3883 -2.10642,-2.1064 -5.94254,-4.8387 -8.52472,-6.0717 -20.19905,-9.6453 -40.32339,-30.0855 -61.50403,-62.4692 -3.62822,-5.5473 -8.47711,-13.5721 -10.77531,-17.8328 -3.76396,-6.9781 -4.02563,-7.8997 -2.63732,-9.288 1.38831,-1.3883 2.12071,-1.2138 7.38151,1.7585 12.31198,6.9563 36.6881,18.9648 40.67238,20.0367 2.29235,0.6167 5.3687,1.7417 6.83634,2.4999 5.0057,2.5863 25.93883,6.4012 35.1538,6.4066 38.72584,0.023 70.55474,-25.2713 94.69569,-75.2529 3.85778,-7.9872 7.88769,-16.9341 8.95536,-19.8821 9.8835,-27.2896 11.6422,-31.3599 13.54998,-31.3599 3.77971,0 6.12988,6.7842 9.00686,26 2.42324,16.1852 2.64463,19.9156 2.19588,37 -0.72183,27.481 -4.40716,43.9858 -14.78521,66.2156 -7.89494,16.9109 -22.45914,37.2844 -26.65321,37.2844 -2.41389,0 -1.3159,-5.7114 2.62111,-13.6342 7.99602,-16.0911 17.26473,-41.61 18.65652,-51.3658 0.35309,-2.475 1.28811,-6.75 2.07783,-9.5 1.74005,-6.0594 3.06899,-25.4719 1.64298,-24 -0.53285,0.55 -4.8528,12.7 -9.59988,27 -10.44923,31.477 -12.88285,38.2936 -15.02467,42.0839 -0.90628,1.6039 -2.08972,4.1536 -2.62988,5.6661 -0.54015,1.5125 -1.66824,2.75 -2.50685,2.75 -2.02206,0 -2.02467,-10.1346 -0.005,-18.5 1.5924,-6.5949 2.00063,-23.0602 0.59331,-23.93 -2.47682,-1.5307 -4.94249,7.6871 -6.97855,26.089 -0.95967,8.6735 -5.42904,25.7376 -7.27891,27.791 -2.12975,2.364 -3.23114,-1.9993 -3.88724,-15.3999 -0.67856,-13.8646 -1.52974,-17.0501 -4.55562,-17.0501 -2.75959,0 -3.52868,4.5554 -4.2673,25.2758 -0.81278,22.8004 -1.61371,26.6143 -5.18743,24.7017 -3.0815,-1.6491 -4.94384,-5.2462 -5.96519,-11.5216 -1.01723,-6.2501 -4.35378,-17.1095 -6.74597,-21.9559 -3.52715,-7.1458 -8.23829,-9.2956 -13.02434,-5.9433 -4.86928,3.4106 -2.01803,15.1741 6.98978,28.838 5.20666,7.898 6.78771,11.0846 6.78771,13.6806 0,1.8985 -0.39369,2.096 -3.09908,1.5549 -2.32214,-0.4644 -7.77482,-5.3704 -21.75,-19.5692 -18.26356,-18.5559 -25.03274,-23.8111 -28.80591,-22.3632 -5.41234,2.077 8.70506,17.0038 30.8159,32.5829 3.6635,2.5813 8.25257,6.5527 10.19794,8.8254 2.88884,3.375 4.60031,4.3824 9.33909,5.4975 7.12659,1.6768 26.35466,1.8107 33.1978,0.2311 3.40416,-0.7858 5.7647,-0.8456 7.2479,-0.1838 1.99607,0.8907 1.52591,1.3237 -5.08189,4.6806 -6.9733,3.5427 -19.33061,7.0051 -31.06175,8.7035 -5.46851,0.7917 -25.76945,0.9904 -31.5,0.3082 z m 3.5,-20.4803 c -11.46418,-6.4999 -32.40778,-20.8439 -41.5,-28.4227 -6.46071,-5.3854 -9.5,-7.0251 -9.5,-5.1254 0,3.2088 10.57529,14.7008 20.40053,22.1689 9.20593,6.9974 25.30356,14.2154 32.09947,14.393 l 4,0.1045 -5.5,-3.1183 z m -269,18.1521 c -2.475,-0.4534 -10.575,-1.1555 -18,-1.5602 -7.425,-0.4047 -15.75,-1.3629 -18.5,-2.1293 -2.75,-0.7665 -7.34518,-1.9902 -10.21151,-2.7193 -9.96132,-2.534 -13.37155,-6.7483 -9.13288,-11.2863 1.28941,-1.3805 3.46939,-3.0827 4.84439,-3.7826 3.95713,-2.0146 18.09864,-4.8387 19.11912,-3.8182 0.53802,0.538 -1.5339,2.4968 -5.12186,4.8422 -9.11928,5.9611 -8.18556,6.9408 9.53057,9.9998 4.96531,0.8574 11.48159,1.4193 14.48062,1.2489 4.84516,-0.2755 5.52961,-0.5886 6.1421,-2.81 0.37913,-1.375 1.89737,-7 3.37389,-12.5 1.47652,-5.5 4.09772,-12.7 5.8249,-16 4.33835,-8.289 15.77939,-19.6372 22.18857,-22.0085 6.86342,-2.5394 7.20163,-2.9093 8.52055,-9.3188 0.64201,-3.12 1.56055,-7.0227 2.04119,-8.6727 0.48064,-1.65 1.80297,-8.3703 2.93851,-14.9341 1.13554,-6.5637 2.98765,-14.0797 4.11581,-16.7022 3.14617,-7.3134 8.15436,-9.6734 13.33069,-6.2818 5.07517,3.3254 5.4017,10.7518 1.35943,30.9181 -1.10245,5.5 -2.2559,13.2304 -2.56321,17.1786 l -0.55875,7.1785 5.46334,5.8215 c 10.35648,11.0353 13.56955,18.0694 14.94504,32.7181 0.52582,5.6 1.51546,10.6718 2.22025,11.3788 2.61373,2.6217 25.07055,-1.2006 31.39315,-5.3434 2.15258,-1.4104 2.19434,-1.6508 0.76637,-4.4122 -2.18097,-4.2176 -1.90254,-5.0204 1.73972,-5.0162 4.32949,0.01 9.53872,3.3063 10.35612,6.5631 1.33817,5.3317 -8.10569,10.8744 -23.60612,13.8545 -3.575,0.6874 -8.75,1.9958 -11.5,2.9076 -2.75,0.9118 -11.525,2.3896 -19.5,3.2839 -15.97098,1.7911 -58.89961,2.7031 -66,1.4022 z m 18.40898,-20.6185 c 4.81311,-1.8469 12.9965,-18.9283 12.40985,-25.9033 -1.03636,-12.3217 -13.20613,-2.1303 -17.2311,14.43 -2.3201,9.5457 -0.63091,13.5655 4.82125,11.4733 z"
       id="path25922"
       inkscape:connector-curvature="0" />
  </g>
  <g
     inkscape:groupmode="layer"
     id="layer2"
     inkscape:label="Layer 2"
     transform="translate(1622.2166,891.6091)" />
</svg>
